<?xml version="1.0" encoding="UTF-8" standalone="no"?>
<svg
   id="svg2"
   height="540"
   width="360"
   version="1.1"
   xmlns="http://www.w3.org/2000/svg"
   xmlns:svg="http://www.w3.org/2000/svg"
   xmlns:rdf="http://www.w3.org/1999/02/22-rdf-syntax-ns#"
   xmlns:cc="http://creativecommons.org/ns#"
   xmlns:dc="http://purl.org/dc/elements/1.1/">
  <metadata
     id="metadata18927">
    <rdf:RDF>
      <cc:Work
         rdf:about="">
        <dc:format>image/svg+xml</dc:format>
        <dc:type
           rdf:resource="http://purl.org/dc/dcmitype/StillImage" />
      </cc:Work>
    </rdf:RDF>
  </metadata>
  <defs
     id="defs18925" />
  <g
     id="g21017"
     transform="translate(-30,-1169.96)">
    <rect
       id="rect56"
       rx="29.944"
       height="539"
       width="359"
       y="1170.46"
       x="30.5"
       style="fill:#ffffff;stroke:#000000" />
    <path
       id="path58"
       d="m 210,1399.97 c -3.999,-0.081 -6.667,1.333 -9.333,4 -2.667,2.667 -4,5.333 -4,9.333 0,4 1.518,6.372 4,9.333 2.375,2.833 4,4 5.333,6.666 1.333,2.667 2.667,8 2.667,10.666 v 4 h -2.67 c -2.667,0 -8,-2.667 -9.333,-4 l -4,-4 c -2.667,-2.667 -5.333,-4 -9.333,-4 -4,0 -6.667,1.333 -9.333,4 -2.667,2.667 -4,5.333 -4,9.333 0,4 1.333,6.666 4,9.333 2.667,2.667 5.333,4 9.333,4 4,0 6.667,-1.333 9.333,-4 l 4,-4 c 1.333,-1.333 6.667,-4 9.333,-4 h 2.667 c -0.066,3.776 -0.346,10.37 -1.333,13.333 -1.333,4 -4,8 -6.667,10.666 -2.667,2.667 -10.667,8 -10.667,8 v 1.333 c 0,0 13.333,-2.667 16,-2.667 h 8 c 2.667,0 16,2.667 16,2.667 v -1.333 c 0,0 -8,-5.333 -10.667,-8 -2.667,-2.667 -5.333,-6.666 -6.667,-10.666 -0.988,-2.963 -1.267,-9.557 -1.333,-13.333 h 2.667 c 2.667,0 8,2.667 9.333,4 l 4,4 c 2.667,2.667 5.333,4 9.333,4 4,0 6.667,-1.333 9.333,-4 2.667,-2.667 4,-5.333 4,-9.333 0,-4 -1.333,-6.666 -4,-9.333 -2.667,-2.667 -5.333,-4 -9.333,-4 -4,0 -6.667,1.333 -9.333,4 l -4,4 c -1.333,1.333 -6.667,4 -9.333,4 h -2.667 v -4 c 0,-2.667 1.333,-8 2.667,-10.666 1.333,-2.667 2.667,-4 5.333,-6.666 2.653,-2.653 4,-5.333 4,-9.333 0,-4 -1.333,-6.666 -4,-9.333 -2.667,-2.667 -5.333,-4 -9.333,-4" />
    <path
       id="path60"
       d="m 60,1259.96 c -1.5,-0.031 -2.5,0.5 -3.5,1.5 -1,1 -1.5,2 -1.5,3.5 0,1.5 0.569,2.39 1.5,3.5 0.891,1.063 1.5,1.5 2,2.5 0.5,1 1,3 1,4 v 1.5 h -1 c -1,0 -3,-1 -3.5,-1.5 l -1.5,-1.5 c -1,-1 -2,-1.5 -3.5,-1.5 -1.5,0 -2.5,0.5 -3.5,1.5 -1,1 -1.5,2 -1.5,3.5 0,1.5 0.5,2.5 1.5,3.5 1,1 2,1.5 3.5,1.5 1.5,0 2.5,-0.5 3.5,-1.5 l 1.5,-1.5 c 0.5,-0.5 2.5,-1.5 3.5,-1.5 h 1 c -0.025,1.416 -0.13,3.889 -0.5,5 -0.5,1.5 -1.5,3 -2.5,4 -1,1 -4,3 -4,3 v 0.5 c 0,0 5,-1 6,-1 h 3 c 1,0 6,1 6,1 v -0.5 c 0,0 -3,-2 -4,-3 -1,-1 -2,-2.5 -2.5,-4 -0.37,-1.111 -0.475,-3.584 -0.5,-5 h 1 c 1,0 3,1 3.5,1.5 l 1.5,1.5 c 1,1 2,1.5 3.5,1.5 1.5,0 2.5,-0.5 3.5,-1.5 1,-1 1.5,-2 1.5,-3.5 0,-1.5 -0.5,-2.5 -1.5,-3.5 -1,-1 -2,-1.5 -3.5,-1.5 -1.5,0 -2.5,0.5 -3.5,1.5 l -1.5,1.5 c -0.5,0.5 -2.5,1.5 -3.5,1.5 h -1 v -1.5 c 0,-1 0.5,-3 1,-4 0.5,-1 1,-1.5 2,-2.5 0.995,-0.995 1.5,-2 1.5,-3.5 0,-1.5 -0.5,-2.5 -1.5,-3.5 -1,-1 -2,-1.5 -3.5,-1.5" />
    <path
       id="path62"
       d="m 360,1619.96 c 1.5,0.031 2.5,-0.5 3.5,-1.5 1,-1 1.5,-2 1.5,-3.5 0,-1.5 -0.569,-2.39 -1.5,-3.5 -0.891,-1.063 -1.5,-1.5 -2,-2.5 -0.5,-1 -1,-3 -1,-4 v -1.5 h 1 c 1,0 3,1 3.5,1.5 l 1.5,1.5 c 1,1 2,1.5 3.5,1.5 1.5,0 2.5,-0.5 3.5,-1.5 1,-1 1.5,-2 1.5,-3.5 0,-1.5 -0.5,-2.5 -1.5,-3.5 -1,-1 -2,-1.5 -3.5,-1.5 -1.5,0 -2.5,0.5 -3.5,1.5 l -1.5,1.5 c -0.5,0.5 -2.5,1.5 -3.5,1.5 h -1 c 0.025,-1.416 0.13,-3.889 0.5,-5 0.5,-1.5 1.5,-3 2.5,-4 1,-1 4,-3 4,-3 v -0.5 c 0,0 -5,1 -6,1 h -3 c -1,0 -6,-1 -6,-1 v 0.5 c 0,0 3,2 4,3 1,1 2,2.5 2.5,4 0.37,1.111 0.475,3.584 0.5,5 h -1 c -1,0 -3,-1 -3.5,-1.5 l -1.5,-1.5 c -1,-1 -2,-1.5 -3.5,-1.5 -1.5,0 -2.5,0.5 -3.5,1.5 -1,1 -1.5,2 -1.5,3.5 0,1.5 0.5,2.5 1.5,3.5 1,1 2,1.5 3.5,1.5 1.5,0 2.5,-0.5 3.5,-1.5 l 1.5,-1.5 c 0.5,-0.5 2.5,-1.5 3.5,-1.5 h 1 v 1.5 c 0,1 -0.5,3 -1,4 -0.5,1 -1,1.5 -2,2.5 -0.995,0.995 -1.5,2 -1.5,3.5 0,1.5 0.5,2.5 1.5,3.5 1,1 2,1.5 3.5,1.5" />
    <g
       id="text19537"
       style="font-style:normal;font-weight:normal;font-size:49.1411px;line-height:125%;font-family:sans-serif;letter-spacing:0px;word-spacing:0px;fill:#000000;fill-opacity:1;stroke:none;stroke-width:1px;stroke-linecap:butt;stroke-linejoin:miter;stroke-opacity:1"
       transform="scale(0.81398339,1.2285263)">
      <path
         id="path20993"
         d="M 91.714512,1017.2036 H 86.65164 l -3.503219,-9.9578 H 67.695863 l -3.503219,9.9578 h -4.822926 l 13.005103,-35.72803 h 6.334589 z m -10.029765,-14.0369 -6.262605,-17.54005 -6.286599,17.54005 z" />
    </g>
    <g
       id="text19541"
       style="font-style:normal;font-weight:normal;font-size:49.1411px;line-height:125%;font-family:sans-serif;letter-spacing:0px;word-spacing:0px;fill:#000000;fill-opacity:1;stroke:none;stroke-width:1px;stroke-linecap:butt;stroke-linejoin:miter;stroke-opacity:1"
       transform="scale(0.81398339,-1.2285263)">
      <path
         id="path20990"
         d="m 457.27786,-1323.9845 h -5.06287 l -3.50322,-9.9578 h -15.45256 l -3.50322,9.9578 h -4.82292 l 13.0051,-35.728 h 6.33459 z m -10.02977,-14.0369 -6.2626,-17.5401 -6.2866,17.5401 z" />
    </g>
  </g>
</svg>
